<!-- Created with Inkscape (http://www.inkscape.org/) -->

<svg style="background:transparent" xmlns:rdf="http://www.w3.org/1999/02/22-rdf-syntax-ns#" xmlns="http://www.w3.org/2000/svg" xml:space="preserve" height="600" width="1200" version="1.1" xmlns:cc="http://creativecommons.org/ns#" xmlns:dc="http://purl.org/dc/elements/1.1/"><metadata><rdf:RDF><cc:Work rdf:about=""><dc:format>image/svg+xml</dc:format><dc:type rdf:resource="http://purl.org/dc/dcmitype/StillImage"/><dc:title/></cc:Work></rdf:RDF></metadata><g fill-rule="nonzero" transform="matrix(1.25,0,0,-1.25,-83.417203,-78.0923)"><path d="m822.89-103.36s-23.916-36.035-86.847-57.117c-64.991-21.719-142.94-28.975-237.77-65.785-93.986-36.526-155.27-76.257-155.27-76.257s3.128-34.266,8.4131-62.192c6.6188-34.927,15.473-62.108,15.473-62.108s-11.492-14.041-31.476-30.868c-22.043-18.552-54.244-41.242-54.244-41.242,17.307,0,28.887,1.1178,43.38-0.2549,16.336,17.866,32.584,36.045,48.802,54.44,26.504,31.24,61.628,73.757,100.5,107.74,83.278,72.802,206.63,120.31,240.57,137.63,56.372,28.769,68.011,42.497,68.011,42.497,1.0198,0.65692,2.0788,1.2747,3.1084,1.9218,0,0-11.208-17.14-64.608-46.811-33.299-18.454-155.46-73.355-235.33-149.78-31.387-30.083-56.597-61.677-75.542-88.857,16.346,0.49023,34.888,5.9029,67.011,4.7066,39.555,0,75.502-6.8638,75.502-6.8638s7.2266,91.407,179.08,204.93c99.967,66.079,91.25,134.28,91.25,134.28z" fill="#FFF"/></g></svg>

